<?xml version="1.0" standalone="no"?><!DOCTYPE svg PUBLIC "-//W3C//DTD SVG 1.1//EN" "http://www.w3.org/Graphics/SVG/1.1/DTD/svg11.dtd"><svg t="1661735046237" class="icon" viewBox="0 0 1024 1024" version="1.1" xmlns="http://www.w3.org/2000/svg" p-id="2183" xmlns:xlink="http://www.w3.org/1999/xlink" width="200" height="200"><path d="M834.799 183.24l38.923 685.672-723.549 0.879 37.27-685.767 647.356-0.784m40.545-85.767h-0.042l-728.571 0.89c-23.668 0.031-42.836 19.242-42.805 42.909L62 912.764c0.031 23.646 19.221 42.794 42.878 42.794h0.042l814.286-0.983c23.668-0.031 42.826-19.252 42.795-42.92l-43.789-771.366c-0.032-23.658-19.222-42.816-42.868-42.816z" p-id="2184" fill="#000000"></path><path d="M511.801 603.891c-103.69 0-197.314-60.121-238.592-153.275-9.584-21.638 0.178-46.948 21.826-56.543 21.585-9.584 46.948 0.167 56.543 21.826 27.539 62.151 90.423 102.277 160.244 102.277h0.282c69.988-0.072 132.893-40.366 160.275-102.653 9.543-21.669 34.832-31.453 56.49-21.983 21.67 9.532 31.505 34.821 21.983 56.491-41.058 93.353-134.724 153.756-238.644 153.861l-0.407-0.001z" p-id="2185" fill="#000000"></path></svg>